<svg xmlns="http://www.w3.org/2000/svg" width="375" viewBox="0 0 375 375" height="375" version="1.0"><defs><clipPath id="a"><path d="M 375 187.503906 C 375 291.050781 291.054688 375 187.5 375 C 83.945312 375 0 291.050781 0 187.503906 C 0 83.949219 83.945312 0 187.5 0 C 291.054688 0 375 83.949219 375 187.503906 Z M 375 187.503906"/></clipPath></defs><g clip-path="url(#a)"><path fill="#55527C" d="M-37.5 -37.5H412.5V412.5H-37.5z"/></g><g fill="#FAFAFA"><g><g><path d="M 46.660156 -48.9375 C 46.59375 -49.476562 46.191406 -49.476562 45.855469 -49.476562 C 45.789062 -49.476562 45.519531 -49.207031 45.320312 -49.207031 C 45.050781 -49.140625 44.582031 -49.140625 44.246094 -49.140625 C 41.296875 -49.074219 38.347656 -48.605469 35.464844 -48.269531 C 32.378906 -47.867188 29.296875 -47.664062 26.210938 -47.328125 L 24.9375 -47.128906 C 24.9375 -47.398438 24.871094 -47.597656 24.738281 -47.800781 C 24.269531 -48.269531 24 -48.738281 23.464844 -49.140625 C 22.523438 -49.808594 20.984375 -50.480469 19.84375 -50.078125 C 18.234375 -49.542969 18.972656 -47.933594 18.101562 -46.726562 C 17.027344 -45.117188 13.207031 -46.054688 11.398438 -45.386719 C 10.59375 -45.117188 10.257812 -44.714844 10.191406 -43.976562 C 9.789062 -40.894531 13.808594 -40.492188 15.957031 -40.828125 C 15.484375 -39.351562 10.121094 -23.128906 10.054688 -23.128906 C 10.191406 -23.328125 10.324219 -23.53125 10.390625 -23.730469 C 10.191406 -23.0625 9.722656 -21.25 9.386719 -21.183594 C 9.453125 -21.25 9.585938 -21.789062 9.585938 -21.789062 C 9.453125 -21.855469 9.386719 -21.320312 9.320312 -21.320312 C 8.984375 -21.25 8.582031 -21.050781 8.179688 -20.984375 C 7.308594 -20.917969 6.167969 -20.984375 5.296875 -20.714844 C 5.296875 -20.648438 5.230469 -20.648438 5.160156 -20.648438 C 2.679688 -19.507812 5.5625 -17.027344 7.375 -17.027344 C 6.367188 -14.683594 5.898438 -12.269531 4.960938 -9.921875 C 4.558594 -8.714844 4.023438 -7.574219 3.554688 -6.367188 L 2.816406 -4.492188 C 2.816406 -4.359375 2.546875 -3.351562 2.613281 -3.285156 L 2.28125 -2.28125 C 2.347656 -2.480469 2.546875 -3.152344 2.546875 -3.152344 C 2.210938 -3.082031 1.609375 -0.402344 1.476562 -0.0664062 C 0.871094 1.003906 0.132812 1.878906 0 3.152344 C -0.269531 6.234375 2.480469 8.714844 5.09375 9.789062 C 9.320312 11.53125 14.011719 7.976562 17.230469 5.5625 C 18.839844 4.289062 20.246094 2.949219 21.722656 1.609375 C 22.726562 0.671875 24 -0.601562 24.46875 -1.878906 C 25.003906 -3.285156 24.335938 -3.554688 23.128906 -2.949219 C 20.582031 -1.609375 18.101562 -0.0664062 15.554688 1.273438 C 12.9375 2.679688 9.855469 4.691406 6.90625 5.230469 C 6.839844 4.960938 7.105469 4.15625 6.90625 3.957031 C 6.703125 3.753906 6.4375 5.230469 6.4375 5.027344 C 6.503906 3.820312 7.105469 2.75 7.507812 1.542969 C 8.113281 -0.199219 8.714844 -1.945312 9.386719 -3.6875 C 10.523438 -6.90625 11.664062 -10.054688 12.671875 -13.339844 L 13.476562 -15.820312 C 13.675781 -16.359375 14.011719 -18.167969 14.414062 -18.503906 C 15.152344 -19.039062 16.828125 -18.90625 17.699219 -19.039062 C 18.839844 -19.171875 19.308594 -19.710938 20.246094 -19.84375 C 21.519531 -20.042969 22.726562 -20.3125 24 -20.445312 C 24.671875 -20.582031 25.742188 -20.648438 26.347656 -21.050781 C 26.949219 -21.320312 26.683594 -21.453125 27.21875 -21.585938 C 28.222656 -21.855469 29.632812 -21.585938 30.503906 -22.324219 C 31.039062 -22.792969 31.242188 -23.398438 30.4375 -23.664062 C 30.300781 -23.730469 30.101562 -23.398438 29.898438 -23.328125 L 29.027344 -23.328125 C 27.484375 -23.261719 26.011719 -23.0625 24.46875 -22.859375 C 21.585938 -22.523438 18.636719 -22.324219 15.6875 -21.988281 C 16.089844 -23.128906 19.777344 -33.519531 21.183594 -36.9375 C 20.582031 -35.53125 19.507812 -32.78125 18.703125 -30.570312 C 19.308594 -32.3125 19.976562 -33.988281 20.648438 -35.730469 L 22.054688 -39.285156 C 22.191406 -39.6875 22.925781 -42.367188 23.328125 -42.4375 C 23.195312 -42.234375 23.195312 -42.101562 23.195312 -41.898438 C 23.328125 -42.035156 23.464844 -42.234375 23.464844 -42.4375 L 24.671875 -42.636719 C 25.339844 -42.839844 26.078125 -43.039062 26.75 -43.171875 C 27.957031 -43.308594 29.230469 -43.308594 30.4375 -43.777344 C 30.90625 -43.910156 30.769531 -44.046875 31.441406 -44.246094 C 31.976562 -44.449219 32.582031 -44.449219 33.117188 -44.515625 C 34.457031 -44.714844 35.800781 -45.117188 37.140625 -45.386719 C 38.414062 -45.585938 39.753906 -45.921875 40.894531 -46.457031 C 40.960938 -46.527344 41.027344 -46.660156 40.960938 -46.792969 C 41.230469 -46.929688 41.429688 -46.929688 41.632812 -46.792969 C 42.167969 -46.996094 42.769531 -46.929688 43.375 -47.0625 C 44.113281 -47.261719 46.792969 -47.664062 46.660156 -48.9375 Z M 12.402344 -25.074219 C 11.53125 -22.996094 10.59375 -21.183594 9.722656 -19.171875 L 12.871094 -27.820312 C 13.40625 -29.566406 14.210938 -31.242188 14.882812 -32.984375 C 14.078125 -30.503906 13.476562 -27.554688 12.402344 -25.074219 Z M 15.6875 -22.523438 C 15.753906 -22.191406 15.621094 -21.988281 15.417969 -21.988281 L 16.289062 -24.132812 Z M 21.585938 -37.808594 C 21.585938 -37.742188 21.519531 -37.609375 21.519531 -37.609375 C 21.519531 -37.675781 21.585938 -37.742188 21.585938 -37.808594 Z M 21.585938 -37.808594 C 21.652344 -37.878906 21.652344 -37.945312 21.722656 -37.945312 C 21.652344 -37.945312 21.652344 -37.878906 21.585938 -37.808594 Z M 21.386719 -37.40625 L 21.183594 -36.9375 Z M 21.386719 -37.40625" transform="translate(21.95 205.339)"/></g></g></g><g fill="#FAFAFA"><g><g><path d="M 26.613281 -15.753906 C 26.414062 -16.691406 25.878906 -16.828125 25.207031 -16.558594 C 23.933594 -15.957031 22.660156 -14.613281 21.453125 -13.808594 C 18.703125 -12.066406 15.957031 -10.660156 13.003906 -9.183594 C 13.003906 -9.25 12.9375 -9.386719 12.871094 -9.585938 C 12.9375 -9.25 12.871094 -9.117188 12.804688 -9.050781 C 12.132812 -11.933594 11.464844 -14.816406 10.925781 -17.765625 C 11.195312 -16.492188 11.800781 -14.347656 12.269531 -12.535156 C 11.664062 -15.351562 10.925781 -18.839844 10.996094 -18.839844 C 10.859375 -18.769531 10.859375 -18.636719 10.859375 -18.503906 C 10.726562 -19.308594 10.523438 -20.3125 10.660156 -21.183594 C 10.726562 -22.191406 11.261719 -23.0625 11.597656 -24 C 11.53125 -23.53125 11.398438 -22.925781 11.398438 -22.925781 C 11.800781 -22.859375 12.066406 -25.339844 12.066406 -25.609375 C 12 -26.011719 11.128906 -27.285156 11.128906 -26.949219 C 9.320312 -28.625 5.765625 -24.9375 5.230469 -23.328125 C 4.828125 -22.257812 4.828125 -21.117188 4.894531 -19.976562 C 4.960938 -18.839844 5.296875 -17.832031 5.632812 -16.761719 C 5.832031 -15.957031 5.5625 -15.417969 5.632812 -14.546875 C 5.765625 -13.207031 6.234375 -11.867188 6.503906 -10.59375 C 6.769531 -9.585938 7.640625 -7.574219 7.441406 -6.636719 C 7.308594 -5.699219 5.296875 -4.894531 4.425781 -4.359375 C 3.285156 -3.621094 2.144531 -2.75 1.003906 -1.878906 C -1.003906 -0.335938 -3.152344 1.609375 -3.957031 4.089844 C -4.089844 4.425781 -4.558594 5.898438 -4.089844 6.167969 C -4.023438 6.234375 -3.820312 5.09375 -3.753906 4.960938 C -4.625 9.386719 -0.269531 11.53125 3.820312 11.597656 C 8.445312 11.730469 11.664062 9.050781 13.273438 4.894531 C 13.945312 3.082031 14.144531 1.207031 14.078125 -0.671875 C 14.078125 -1.945312 13.945312 -3.152344 13.742188 -4.359375 C 13.609375 -5.429688 13.476562 -5.363281 14.210938 -5.964844 C 14.75 -6.367188 15.554688 -6.636719 16.089844 -6.90625 C 18.234375 -8.042969 20.179688 -9.386719 22.125 -10.792969 C 23.53125 -11.800781 26.882812 -13.542969 26.613281 -15.6875 Z M -0.46875 7.308594 C -2.210938 6.769531 -0.46875 4.023438 0.132812 3.152344 C 1.140625 1.808594 2.613281 0.804688 3.957031 -0.132812 L 5.964844 -1.476562 C 6.167969 -1.609375 7.441406 -2.613281 7.039062 -2.480469 L 7.84375 -2.949219 L 7.375 -2.546875 C 7.507812 -2.613281 7.710938 -2.679688 7.84375 -2.816406 C 7.910156 -1.207031 7.910156 0.402344 7.441406 2.011719 C 7.375 2.28125 6.101562 4.960938 5.5625 5.496094 L 5.898438 5.230469 C 5.296875 5.964844 4.625 6.570312 3.820312 7.039062 C 3.820312 6.972656 4.425781 6.570312 4.359375 6.503906 L 2.480469 7.242188 C 1.542969 7.441406 0.46875 7.640625 -0.46875 7.308594 Z M 7.976562 9.25 C 6.234375 9.988281 4.558594 10.324219 2.75 10.390625 C 6.035156 10.191406 9.453125 8.582031 11.398438 5.832031 C 10.660156 7.308594 9.722656 8.445312 7.976562 9.25 Z M 12.871094 -9.789062 C 12.804688 -10.257812 12.671875 -10.925781 12.46875 -11.664062 C 12.601562 -10.925781 12.738281 -10.191406 12.871094 -9.789062 Z M 13.742188 -2.816406 C 13.675781 -2.882812 13.675781 -3.015625 13.675781 -3.152344 C 13.675781 -3.015625 13.742188 -2.882812 13.742188 -2.816406 Z M 13.742188 -2.816406" transform="translate(53.124 205.339)"/></g></g></g><g fill="#FAFAFA"><g><g><path d="M 27.21875 -34.859375 C 27.152344 -35.800781 26.144531 -35.0625 25.609375 -35.0625 C 22.925781 -34.925781 20.246094 -34.925781 17.632812 -34.792969 C 17.632812 -34.859375 17.765625 -35.128906 17.964844 -35.53125 C 17.699219 -35.0625 17.496094 -34.792969 17.296875 -34.792969 C 19.308594 -38.882812 21.453125 -42.972656 24 -46.726562 C 23.933594 -46.59375 22.925781 -44.917969 22.996094 -44.917969 C 23.195312 -44.847656 25.675781 -48.269531 25.742188 -48.738281 C 25.742188 -49.007812 25.140625 -48.335938 25.140625 -48.402344 C 25.542969 -48.804688 26.210938 -49.140625 26.414062 -49.675781 C 26.882812 -51.015625 25.476562 -51.621094 24.46875 -51.820312 C 22.390625 -52.222656 20.042969 -51.957031 18.703125 -50.210938 C 17.429688 -48.671875 16.492188 -46.859375 15.6875 -45.050781 C 15.285156 -44.246094 14.75 -44.046875 14.210938 -43.308594 C 13.40625 -42.167969 12.871094 -40.828125 12.269531 -39.554688 C 11.730469 -38.414062 11.195312 -37.207031 10.726562 -36 C 10.457031 -35.398438 10.457031 -34.925781 9.855469 -34.726562 C 9.25 -34.457031 8.113281 -34.660156 7.441406 -34.59375 C 4.828125 -34.257812 2.28125 -34.390625 -0.335938 -34.125 C -1.675781 -34.054688 -3.015625 -34.054688 -4.289062 -33.585938 C -4.558594 -33.519531 -6.035156 -33.183594 -6.167969 -32.984375 C -6.570312 -32.246094 -4.960938 -32.179688 -4.625 -32.113281 C -2.078125 -31.777344 1.140625 -31.507812 3.6875 -31.976562 C 5.429688 -32.3125 7.242188 -32.179688 9.117188 -32.3125 C 8.179688 -30.300781 7.441406 -28.15625 6.703125 -26.011719 L 5.898438 -23.664062 C 5.632812 -22.925781 4.761719 -21.519531 4.761719 -20.714844 C 4.761719 -20.582031 4.960938 -20.917969 5.09375 -21.25 C 4.761719 -20.246094 4.359375 -19.242188 4.089844 -18.234375 C 4.089844 -18.300781 4.289062 -19.105469 4.222656 -19.105469 C 3.886719 -19.105469 2.546875 -15.015625 2.414062 -14.683594 C 1.742188 -12.671875 1.003906 -10.660156 0.671875 -8.515625 C 0.269531 -6.367188 -0.269531 -4.289062 -0.738281 -2.210938 C -1.003906 -1.140625 -1.273438 -0.132812 -1.40625 0.9375 C -1.542969 1.476562 -1.675781 2.078125 -1.675781 2.613281 C -1.675781 2.75 -1.675781 3.621094 -1.542969 3.351562 L -1.675781 4.691406 L -1.675781 3.6875 C -2.078125 4.15625 -1.675781 6.300781 -1.609375 6.703125 C -1.339844 8.042969 -0.671875 9.25 0.535156 10.054688 C 1.609375 10.859375 3.285156 11.597656 4.558594 10.996094 C 6.234375 10.191406 7.640625 8.3125 8.714844 6.972656 C 11.0625 4.222656 13.207031 1.339844 15.351562 -1.542969 C 17.296875 -4.222656 19.308594 -6.839844 20.984375 -9.652344 C 21.921875 -11.261719 23.730469 -12.738281 24.335938 -14.546875 C 24.671875 -15.417969 24.46875 -16.492188 23.398438 -16.289062 C 22.523438 -16.089844 21.320312 -13.742188 20.78125 -13.074219 C 18.367188 -10.054688 16.089844 -6.972656 13.675781 -3.957031 L 9.789062 0.804688 C 9.183594 1.476562 8.582031 2.210938 7.910156 2.882812 C 7.640625 3.21875 5.964844 4.558594 6.035156 4.960938 C 6.035156 5.09375 6.769531 4.492188 7.039062 4.289062 C 6.703125 4.691406 6.300781 5.027344 5.964844 5.363281 C 6.035156 5.296875 4.625 6.101562 4.425781 5.964844 C 3.152344 5.429688 4.289062 1.542969 4.492188 0.601562 C 5.699219 -4.828125 7.507812 -10.324219 9.320312 -15.554688 C 10.390625 -18.4375 11.464844 -21.183594 12.671875 -24 C 13.273438 -25.40625 13.878906 -26.882812 14.546875 -28.289062 L 15.484375 -30.839844 L 14.75 -29.363281 C 15.21875 -30.570312 15.886719 -32.378906 16.289062 -32.445312 L 16.089844 -32.046875 C 16.222656 -32.246094 16.359375 -32.378906 16.492188 -32.445312 C 17.230469 -32.917969 19.105469 -32.445312 19.976562 -32.445312 C 20.582031 -32.445312 21.320312 -32.378906 21.921875 -32.582031 C 22.324219 -32.714844 22.191406 -32.917969 22.660156 -33.050781 C 23.464844 -33.183594 24.46875 -32.648438 25.339844 -32.917969 C 26.144531 -33.117188 27.285156 -33.855469 27.21875 -34.792969 Z M 14.480469 -30.972656 C 11.464844 -24.605469 9.183594 -17.765625 6.769531 -11.128906 C 5.632812 -8.113281 4.558594 -4.960938 3.820312 -1.808594 L 3.484375 -0.535156 C 3.957031 -2.949219 4.492188 -5.296875 5.160156 -7.640625 C 6.636719 -12.804688 8.515625 -17.898438 10.726562 -22.792969 C 14.480469 -31.171875 17.832031 -40.15625 23.195312 -47.730469 C 19.574219 -42.570312 17.164062 -36.671875 14.480469 -30.972656 Z M 18.90625 -37.609375 L 20.515625 -40.691406 C 20.179688 -40.625 19.574219 -39.152344 18.90625 -37.609375 Z M 12 -22.996094 C 11.53125 -21.722656 10.996094 -20.515625 10.457031 -19.308594 C 10.996094 -20.582031 11.464844 -21.921875 12.066406 -23.261719 C 12 -23.128906 12 -23.0625 12 -22.996094 Z M 18.035156 -35.664062 L 18.703125 -37.140625 C 18.503906 -36.605469 18.234375 -36.066406 18.035156 -35.664062 Z M 3.417969 6.570312 C 3.351562 6.570312 3.285156 6.503906 3.21875 6.4375 Z M 3.417969 6.570312" transform="translate(74.845 205.339)"/></g></g></g><g fill="#FAFAFA"><g><g><path d="M 25.675781 -16.558594 C 25.675781 -16.492188 25.675781 -16.492188 25.609375 -16.558594 L 25.609375 -16.625 C 24.535156 -18.4375 23.128906 -15.957031 22.523438 -15.082031 C 21.386719 -13.542969 20.3125 -12.066406 19.105469 -10.660156 C 18.101562 -9.453125 17.027344 -8.246094 16.222656 -6.972656 C 16.222656 -6.839844 16.089844 -6.503906 16.089844 -6.503906 C 15.820312 -6.101562 15.417969 -5.765625 15.082031 -5.363281 C 14.480469 -4.761719 13.878906 -4.089844 13.207031 -3.484375 C 12.203125 -2.546875 6.570312 2.75 5.832031 -0.671875 C 5.429688 -2.347656 5.964844 -4.425781 6.300781 -6.035156 C 6.503906 -6.90625 6.703125 -7.710938 6.839844 -8.582031 C 6.972656 -9.25 6.769531 -9.921875 7.105469 -10.59375 C 7.308594 -10.996094 7.375 -10.925781 7.84375 -11.0625 L 8.984375 -11.464844 C 9.722656 -11.730469 10.457031 -12 11.128906 -12.402344 C 12.132812 -13.003906 13.074219 -13.742188 13.945312 -14.480469 C 16.023438 -16.222656 18.234375 -18.300781 19.105469 -20.917969 C 19.574219 -22.390625 19.644531 -24 18.703125 -25.273438 C 17.832031 -26.414062 16.359375 -27.015625 15.015625 -27.285156 C 11.398438 -27.957031 8.648438 -25.878906 6.570312 -23.128906 C 4.023438 -19.976562 2.210938 -16.089844 1.339844 -12.132812 C 0.871094 -10.191406 0.601562 -8.246094 0.269531 -6.234375 C -0.0664062 -4.222656 -0.269531 -2.347656 0.804688 -0.46875 C 0.738281 -1.140625 0.601562 -1.742188 0.601562 -2.347656 C 0.601562 -2.679688 0.738281 -3.015625 0.738281 -3.285156 C 0.738281 -3.417969 0.601562 -3.820312 0.601562 -4.023438 C 0.601562 -4.625 0.738281 -5.09375 0.871094 -5.699219 C 0.9375 -6.300781 0.871094 -6.90625 0.9375 -7.507812 C 1.003906 -8.179688 1.273438 -8.714844 1.542969 -9.320312 C 1.742188 -9.855469 1.808594 -10.324219 2.011719 -10.859375 C 2.210938 -11.328125 2.347656 -11.867188 2.546875 -12.402344 C 2.613281 -12.738281 2.949219 -13.140625 3.152344 -13.542969 C 2.949219 -12.9375 2.546875 -12.402344 2.414062 -11.867188 C 2.210938 -11.0625 2.347656 -10.191406 2.28125 -9.386719 C 2.144531 -8.515625 1.878906 -7.640625 1.742188 -6.703125 C 1.609375 -5.832031 1.207031 -5.027344 1.074219 -4.15625 C 0.9375 -3.351562 0.671875 -2.75 0.738281 -1.945312 C 0.738281 -1.476562 0.804688 -1.003906 0.871094 -0.601562 C 0.9375 -0.0664062 1.273438 0.269531 1.609375 0.671875 C 2.75 2.011719 4.289062 3.082031 6.035156 3.554688 C 7.242188 3.886719 8.3125 3.820312 9.453125 3.21875 C 11.0625 2.347656 12.46875 1.003906 13.675781 -0.269531 C 14.816406 -1.542969 15.6875 -2.949219 16.691406 -4.289062 C 17.632812 -5.496094 18.769531 -6.636719 19.710938 -7.84375 L 23.328125 -12.535156 L 25.40625 -15.285156 C 25.742188 -15.6875 25.945312 -16.023438 25.675781 -16.558594 Z M 9.050781 -15.820312 C 9.117188 -15.957031 9.117188 -16.023438 9.117188 -16.023438 C 10.121094 -18.167969 10.859375 -20.445312 12.269531 -22.523438 L 13.476562 -24.132812 C 13.742188 -24.46875 14.210938 -25.074219 14.683594 -25.207031 C 15.6875 -25.40625 15.957031 -23.664062 15.886719 -22.996094 L 15.621094 -21.585938 C 15.554688 -21.183594 15.6875 -20.917969 15.621094 -20.582031 C 15.484375 -20.179688 15.152344 -19.976562 14.949219 -19.644531 L 13.808594 -18.167969 C 12.269531 -16.359375 10.324219 -14.816406 8.179688 -13.675781 C 8.515625 -14.414062 8.714844 -15.152344 9.050781 -15.820312 Z M 9.050781 -15.820312" transform="translate(95.426 205.339)"/></g></g></g><g fill="#FAFAFA"><g><g><path d="M 34.054688 -16.425781 L 34.054688 -16.492188 L 33.988281 -16.492188 C 33.183594 -17.632812 31.976562 -15.820312 31.171875 -15.21875 C 29.429688 -13.808594 27.621094 -12.671875 25.742188 -11.464844 C 25.808594 -11.800781 25.808594 -15.417969 25.609375 -15.285156 C 25.476562 -15.082031 25.476562 -14.882812 25.476562 -14.683594 C 25.339844 -16.828125 25.003906 -19.574219 22.390625 -20.378906 C 21.386719 -20.714844 20.445312 -20.445312 19.507812 -20.042969 C 16.894531 -18.839844 14.683594 -16.289062 12.804688 -14.28125 C 11.195312 -12.535156 9.722656 -10.660156 8.378906 -8.714844 C 9.117188 -9.652344 9.921875 -10.523438 10.59375 -11.261719 C 9.117188 -9.386719 7.710938 -7.375 6.636719 -5.230469 L 6.90625 -6.300781 L 6.769531 -5.964844 C 7.308594 -9.585938 7.976562 -13.207031 8.78125 -16.761719 C 9.117188 -18.4375 9.320312 -20.917969 10.191406 -22.390625 C 10.859375 -23.597656 12.9375 -23.730469 13.675781 -24.9375 C 13.675781 -24.9375 13.476562 -24.804688 13.207031 -24.671875 C 14.144531 -25.40625 15.015625 -26.210938 15.886719 -26.949219 C 15.886719 -26.882812 15.21875 -26.210938 15.21875 -26.210938 C 15.6875 -25.878906 19.441406 -29.832031 19.777344 -30.234375 C 21.386719 -31.910156 22.925781 -33.722656 24.132812 -35.800781 C 25.207031 -37.675781 26.414062 -39.488281 27.417969 -41.363281 C 28.089844 -42.4375 28.625 -43.507812 29.164062 -44.648438 C 29.496094 -45.453125 30.4375 -47.128906 30.234375 -48.066406 C 30.167969 -48.132812 30.101562 -48.132812 30.035156 -48.066406 L 30.4375 -49.675781 C 30.4375 -49.675781 30.300781 -48.402344 30.234375 -48.335938 C 30.570312 -48.605469 30.503906 -50.011719 30.503906 -50.011719 C 31.308594 -53.832031 31.308594 -61.476562 25.878906 -61.742188 C 23.0625 -61.8125 20.78125 -59.261719 19.171875 -57.320312 C 17.296875 -54.972656 15.6875 -52.359375 14.28125 -49.675781 C 11.664062 -45.050781 9.652344 -40.089844 7.640625 -35.195312 C 5.363281 -29.566406 3.351562 -23.730469 2.011719 -17.832031 C 1.140625 -14.347656 0.46875 -10.859375 0.199219 -7.308594 C 0.132812 -6.4375 -0.46875 -1.675781 0.738281 -1.207031 C 0.738281 -1.140625 0.738281 -1.40625 0.671875 -1.808594 C 0.738281 -1.476562 0.871094 -1.273438 1.003906 -1.003906 C 0.9375 -1.003906 1.339844 0 1.339844 0 C 1.675781 0.601562 2.144531 1.207031 2.75 1.609375 C 3.886719 2.414062 5.429688 2.816406 6.234375 1.476562 C 6.90625 0.402344 7.171875 -1.40625 7.777344 -2.613281 C 7.976562 -3.152344 8.246094 -3.6875 8.515625 -4.222656 C 8.445312 -4.558594 8.515625 -4.828125 8.78125 -5.027344 C 8.917969 -4.960938 9.050781 -5.027344 9.25 -5.160156 C 10.257812 -6.300781 10.859375 -7.84375 11.664062 -9.183594 C 12 -9.722656 16.359375 -15.484375 16.894531 -15.753906 C 16.828125 -15.753906 16.761719 -15.753906 16.691406 -15.6875 C 17.09375 -16.089844 17.429688 -16.359375 17.898438 -16.691406 C 17.964844 -16.558594 17.5625 -16.359375 17.632812 -16.289062 C 17.632812 -16.289062 20.042969 -17.164062 20.3125 -17.164062 C 21.183594 -16.960938 21.050781 -15.554688 20.984375 -14.882812 C 20.847656 -13.878906 20.378906 -12.9375 19.910156 -12.066406 C 19.644531 -11.53125 19.171875 -10.925781 19.039062 -10.390625 C 19.039062 -10.324219 18.636719 -9.25 19.039062 -9.722656 L 18.839844 -9.386719 C 18.636719 -9.050781 17.363281 -7.375 17.09375 -7.171875 C 15.957031 -6.101562 15.082031 -4.828125 14.011719 -3.753906 C 12.671875 -2.414062 9.652344 -1.808594 11.664062 0.671875 C 15.285156 5.09375 20.847656 -1.878906 22.792969 -4.691406 C 23.867188 -6.300781 25.207031 -7.710938 26.347656 -9.050781 C 26.75 -9.519531 27.484375 -10.121094 28.023438 -10.457031 C 28.222656 -10.59375 28.558594 -10.59375 28.761719 -10.792969 C 29.296875 -11.328125 29.363281 -11.597656 29.832031 -12.066406 C 30.703125 -12.9375 32.179688 -13.207031 32.984375 -14.210938 C 33.117188 -14.414062 33.117188 -14.546875 32.917969 -14.75 C 32.984375 -14.882812 33.117188 -14.882812 33.25 -14.816406 L 33.652344 -15.015625 C 33.988281 -15.484375 34.457031 -15.753906 34.054688 -16.425781 Z M 26.546875 -58.726562 C 28.691406 -58.726562 28.425781 -53.09375 28.359375 -51.890625 C 28.222656 -49.945312 27.753906 -48 27.085938 -46.191406 C 26.613281 -44.78125 26.078125 -42.636719 25.207031 -41.496094 C 23.464844 -39.21875 21.519531 -36.605469 19.644531 -34.257812 C 17.230469 -31.242188 14.347656 -28.691406 11.328125 -26.28125 C 12.535156 -30.300781 13.945312 -34.324219 15.484375 -38.28125 C 15.886719 -39.21875 19.777344 -49.410156 20.3125 -49.878906 C 20.179688 -49.808594 20.042969 -49.675781 19.910156 -49.476562 C 21.050781 -51.957031 22.257812 -54.4375 24 -56.648438 L 23.128906 -55.039062 C 23.800781 -55.84375 26.414062 -58.792969 26.546875 -58.59375 C 26.480469 -58.726562 26.011719 -58.59375 25.808594 -58.457031 C 26.011719 -58.660156 26.28125 -58.726562 26.546875 -58.726562 Z M 13.339844 -46.457031 C 14.882812 -49.410156 16.492188 -52.15625 18.570312 -54.839844 C 19.910156 -56.648438 21.855469 -58.792969 24.269531 -59.597656 C 21.921875 -58.792969 20.3125 -56.714844 18.90625 -54.769531 C 16.960938 -52.089844 15.351562 -49.273438 13.675781 -46.390625 C 11.128906 -42.035156 9.117188 -37.40625 7.375 -32.78125 C 9.050781 -37.40625 10.996094 -42.035156 13.339844 -46.457031 Z M 17.765625 -6.570312 C 16.625 -5.027344 14.949219 -3.082031 13.273438 -2.144531 C 14.144531 -2.679688 14.816406 -3.6875 15.6875 -4.691406 C 16.894531 -6.234375 18.035156 -7.777344 19.171875 -9.386719 C 19.710938 -10.121094 21.25 -12.871094 21.722656 -15.015625 C 21.25 -12 19.375 -9.050781 17.765625 -6.570312 Z M 10.996094 -26.011719 L 10.996094 -26.144531 L 11.0625 -26.28125 C 11.0625 -26.347656 11.128906 -26.414062 11.128906 -26.546875 C 11.128906 -26.613281 11.128906 -26.683594 11.195312 -26.75 L 11.195312 -26.816406 L 12.066406 -29.566406 L 11.730469 -28.359375 C 11.597656 -27.820312 11.398438 -26.347656 10.996094 -26.011719 Z M 14.011719 -35.0625 C 15.082031 -37.878906 16.15625 -40.691406 17.296875 -43.441406 Z M 6.972656 -6.367188 L 8.378906 -8.714844 C 7.84375 -7.976562 7.308594 -7.171875 6.972656 -6.367188 Z M 10.996094 -26.011719 L 10.996094 -26.144531 L 11.0625 -26.210938 C 11.0625 -26.144531 10.996094 -26.078125 10.996094 -26.011719 Z M 12.535156 -13.675781 C 12.535156 -13.609375 12.46875 -13.609375 12.46875 -13.609375 Z M 12.535156 -13.675781" transform="translate(116.275 205.339)"/></g></g></g><g fill="#FAFAFA"><g><g><path d="M 34.125 -16.15625 C 34.054688 -17.632812 32.847656 -16.359375 32.445312 -15.820312 C 31.574219 -14.546875 30.769531 -13.207031 29.964844 -11.933594 C 28.15625 -9.183594 26.347656 -6.4375 24.269531 -3.820312 C 17.363281 4.691406 22.191406 -10.457031 21.652344 -10.324219 C 21.386719 -10.257812 21.183594 -9.25 21.117188 -9.050781 C 21.652344 -11.464844 22.660156 -14.347656 23.933594 -16.691406 C 24.671875 -18.167969 25.542969 -19.375 24.203125 -20.984375 C 21.722656 -24 18.839844 -21.25 17.230469 -19.171875 C 16.558594 -21.722656 15.21875 -25.476562 11.933594 -25.476562 C 10.457031 -25.476562 9.585938 -24.738281 8.582031 -23.867188 C 7.976562 -23.464844 7.507812 -23.398438 6.972656 -22.925781 C 6.101562 -22.324219 5.496094 -21.386719 4.894531 -20.582031 C 2.613281 -17.230469 1.003906 -13.003906 0.269531 -9.117188 C -0.0664062 -7.242188 -0.199219 -5.160156 0.335938 -3.285156 C 0.671875 -2.210938 1.878906 0.199219 3.417969 0 C 3.484375 0 3.351562 -0.0664062 3.152344 -0.199219 C 4.089844 0.0664062 5.160156 -0.0664062 5.964844 -0.601562 C 6.035156 -0.46875 5.230469 -0.132812 5.230469 -0.132812 C 5.964844 1.003906 11.464844 -5.632812 11.867188 -6.234375 C 12.738281 -7.441406 13.339844 -8.714844 14.144531 -9.988281 C 14.75 -10.925781 15.6875 -12.132812 16.359375 -13.140625 C 16.289062 -12.671875 16.289062 -12.066406 16.289062 -12.066406 C 15.082031 -8.246094 13.945312 -4.089844 15.554688 -0.132812 C 16.289062 1.878906 18.101562 3.753906 20.378906 3.351562 C 22.390625 3.015625 24.066406 1.074219 25.273438 -0.46875 C 26.75 -2.210938 28.023438 -4.15625 29.296875 -6.167969 C 30.367188 -7.976562 31.375 -9.789062 32.246094 -11.800781 C 32.78125 -13.074219 34.257812 -14.613281 34.125 -16.15625 Z M 14.882812 -15.6875 C 14.546875 -15.21875 14.210938 -14.75 13.945312 -14.28125 L 12.203125 -11.800781 C 11.0625 -10.121094 9.855469 -8.515625 8.582031 -6.972656 C 8.246094 -6.503906 6.636719 -4.425781 5.964844 -4.625 C 4.960938 -4.960938 6.035156 -8.445312 6.167969 -8.984375 C 6.367188 -9.921875 9.921875 -20.246094 10.859375 -20.445312 C 9.652344 -20.515625 5.765625 -8.378906 5.5625 -7.375 C 6.101562 -10.660156 7.308594 -13.878906 8.648438 -16.894531 C 9.386719 -18.4375 11.0625 -22.523438 13.273438 -22.523438 C 14.480469 -22.523438 14.75 -20.042969 14.949219 -19.242188 C 14.882812 -19.375 14.28125 -21.320312 14.210938 -21.25 C 13.878906 -20.984375 15.21875 -17.296875 15.21875 -16.761719 C 15.21875 -16.222656 15.21875 -16.222656 14.882812 -15.6875 Z M 16.425781 -12.402344 C 16.425781 -12.402344 16.625 -13.339844 16.691406 -13.542969 L 17.027344 -14.011719 Z M 15.417969 -16.558594 L 15.417969 -17.230469 C 15.621094 -16.960938 15.621094 -16.761719 15.417969 -16.558594 Z M 15.417969 -16.558594" transform="translate(145.572 205.339)"/></g></g></g><g fill="#FAFAFA"><g><g><path d="M 27.753906 -15.957031 C 27.417969 -17.5625 26.480469 -16.492188 26.078125 -15.886719 C 25.140625 -14.75 23.664062 -13.675781 22.523438 -12.601562 C 20.984375 -11.261719 19.441406 -9.855469 17.832031 -8.582031 C 17.027344 -7.910156 16.023438 -6.972656 15.015625 -6.636719 C 14.882812 -6.570312 14.414062 -6.503906 14.414062 -6.4375 L 14.347656 -6.503906 C 14.347656 -6.503906 14.28125 -7.574219 14.347656 -7.640625 C 14.414062 -8.515625 14.683594 -9.386719 14.949219 -10.191406 C 15.015625 -10.324219 15.753906 -12.601562 15.621094 -12.601562 L 15.285156 -12.203125 C 15.6875 -13.003906 16.222656 -13.808594 16.691406 -14.683594 C 15.621094 -13.675781 14.882812 -12.535156 14.347656 -11.128906 C 14.078125 -10.457031 13.339844 -9.25 13.207031 -8.246094 C 13.339844 -9.722656 14.347656 -11.664062 14.816406 -12.535156 C 15.484375 -13.945312 16.222656 -15.554688 17.09375 -16.894531 C 18.703125 -19.308594 22.191406 -21.519531 21.117188 -24.871094 C 20.179688 -28.023438 17.699219 -28.089844 15.753906 -26.28125 C 14.816406 -25.40625 6.839844 -15.21875 7.039062 -15.082031 C 7.039062 -15.082031 7.710938 -15.886719 8.582031 -17.027344 L 4.625 -11.261719 C 4.558594 -11.261719 5.296875 -12.402344 5.230469 -12.46875 C 5.160156 -12.535156 4.691406 -12.066406 4.625 -11.800781 C 4.761719 -13.207031 5.230469 -14.613281 5.363281 -16.023438 C 5.429688 -16.558594 5.363281 -16.960938 5.496094 -17.496094 C 5.765625 -18.367188 6.035156 -19.308594 6.4375 -20.042969 C 6.703125 -20.582031 7.242188 -21.050781 7.375 -21.585938 C 7.640625 -22.457031 7.574219 -22.792969 8.179688 -23.53125 C 8.714844 -24.203125 9.519531 -24.871094 9.988281 -25.476562 C 11.128906 -27.152344 9.183594 -28.289062 8.113281 -28.492188 C 7.242188 -28.625 6.367188 -28.691406 5.5625 -28.222656 C 4.691406 -27.6875 4.894531 -27.21875 4.691406 -26.480469 C 4.492188 -25.542969 3.820312 -24.46875 3.484375 -23.597656 C 2.949219 -22.191406 2.480469 -20.78125 2.011719 -19.375 C 1.476562 -17.964844 0.9375 -16.625 0.535156 -15.21875 C 0.199219 -14.078125 0.269531 -13.003906 0.132812 -11.933594 C 0 -10.726562 -0.199219 -9.921875 0.402344 -8.847656 C 1.074219 -7.710938 2.882812 -5.964844 4.089844 -7.441406 L 4.359375 -6.90625 C 5.496094 -9.386719 7.242188 -11.597656 8.648438 -14.011719 C 9.25 -15.082031 10.324219 -15.820312 11.195312 -16.960938 C 12.402344 -18.570312 13.476562 -20.179688 14.816406 -21.722656 C 14.613281 -21.386719 13.742188 -19.84375 13.808594 -19.777344 C 13.945312 -19.84375 14.011719 -19.976562 14.144531 -20.113281 L 13.207031 -18.234375 C 13.140625 -18.300781 13.476562 -18.769531 13.339844 -18.769531 C 12.871094 -18.90625 11.464844 -15.152344 11.328125 -14.816406 C 10.859375 -13.339844 10.792969 -12 10.660156 -10.457031 C 10.59375 -9.722656 10.457031 -8.984375 10.457031 -8.246094 C 10.457031 -7.507812 10.523438 -6.769531 10.859375 -6.035156 C 11.0625 -5.632812 11.328125 -5.09375 11.664062 -4.761719 C 11.730469 -4.761719 12.46875 -4.089844 12.132812 -4.625 L 12.535156 -4.222656 L 12.335938 -4.359375 C 12.269531 -4.023438 14.75 -2.679688 15.152344 -2.546875 C 17.027344 -1.945312 19.039062 -4.089844 20.246094 -5.363281 C 21.855469 -7.105469 23.195312 -9.117188 24.671875 -10.996094 C 25.476562 -12.066406 28.023438 -14.347656 27.753906 -15.957031 Z M 27.753906 -15.957031" transform="translate(174.801 205.339)"/></g></g></g><g fill="#FAFAFA"><g><g><path d="M 35.730469 -50.546875 C 33.652344 -49.945312 31.574219 -47.398438 30.101562 -45.921875 C 29.164062 -45.050781 28.222656 -44.113281 27.351562 -43.105469 C 26.75 -42.4375 25.207031 -41.09375 25.074219 -40.15625 C 25.140625 -40.089844 25.140625 -40.089844 25.207031 -40.089844 L 24.269531 -38.882812 C 24.203125 -38.816406 24.804688 -39.820312 24.871094 -39.886719 C 24.535156 -39.753906 24 -38.546875 24 -38.546875 C 22.125 -36.132812 20.042969 -33.921875 18.300781 -31.375 C 16.359375 -28.492188 14.75 -25.542969 13.207031 -22.457031 C 14.011719 -25.542969 15.152344 -28.492188 16.289062 -31.441406 L 14.683594 -28.023438 L 15.351562 -29.566406 C 13.140625 -25.476562 11.261719 -21.183594 9.921875 -16.761719 C 12.601562 -25.808594 16.359375 -35.261719 22.257812 -44.984375 C 22.054688 -44.582031 21.855469 -44.046875 21.921875 -44.046875 C 22.191406 -43.976562 23.53125 -46.59375 23.328125 -46.660156 L 23.128906 -46.527344 C 23.53125 -47.261719 23.730469 -47.664062 23.328125 -48.738281 C 22.925781 -49.808594 21.921875 -51.6875 20.515625 -51.085938 C 19.644531 -50.75 18.90625 -49.140625 18.570312 -48.46875 C 18.367188 -48.132812 18.300781 -47.597656 18.101562 -47.328125 C 17.832031 -46.929688 17.363281 -46.726562 16.960938 -46.191406 C 16.089844 -44.847656 15.484375 -43.242188 14.882812 -41.765625 C 14.546875 -40.960938 10.859375 -32.984375 10.996094 -32.917969 C 11.128906 -32.984375 11.195312 -33.117188 11.261719 -33.25 C 11.0625 -32.648438 10.792969 -32.046875 10.523438 -31.441406 C 10.457031 -31.507812 10.726562 -31.976562 10.59375 -31.976562 C 9.988281 -32.113281 7.976562 -26.546875 7.84375 -26.011719 C 7.574219 -24.738281 7.242188 -23.597656 6.703125 -22.324219 C 6.367188 -21.519531 6.035156 -20.714844 5.765625 -19.910156 C 5.765625 -19.84375 5.429688 -18.167969 5.699219 -18.769531 C 5.699219 -18.570312 5.632812 -18.4375 5.5625 -18.234375 C 5.5625 -18.300781 5.5625 -18.4375 5.496094 -18.503906 C 5.363281 -18.4375 4.960938 -16.425781 4.828125 -16.15625 C 4.359375 -15.152344 3.820312 -14.144531 3.417969 -13.074219 C 2.414062 -10.257812 1.945312 -7.375 1.273438 -4.425781 C 0.804688 -2.210938 -0.671875 1.339844 0.335938 3.554688 C 1.273438 5.632812 4.492188 5.496094 5.964844 3.957031 C 5.964844 4.089844 6.035156 4.15625 6.101562 4.222656 C 6.769531 -0.804688 8.714844 -5.898438 10.726562 -10.59375 C 11.128906 -9.855469 10.925781 -9.519531 11.195312 -8.648438 C 11.53125 -7.308594 12.402344 -6.167969 13.003906 -4.960938 C 13.273438 -4.425781 16.289062 1.476562 16.425781 1.40625 C 16.492188 1.273438 16.425781 1.140625 16.425781 1.074219 C 16.625 1.542969 16.894531 1.945312 17.164062 2.414062 C 17.09375 2.414062 16.960938 2.078125 16.828125 2.144531 C 16.289062 2.546875 19.105469 6.503906 19.441406 6.769531 C 20.179688 7.640625 20.847656 8.445312 21.453125 9.320312 C 21.855469 9.855469 22.191406 10.390625 22.660156 10.792969 C 22.726562 10.859375 23.53125 11.464844 23.398438 11.195312 C 23.464844 11.261719 23.597656 11.328125 23.664062 11.464844 C 23.664062 11.464844 23.597656 11.398438 23.53125 11.398438 C 23.464844 11.597656 26.683594 14.613281 26.949219 14.816406 C 28.15625 15.554688 29.496094 16.023438 30.90625 15.886719 C 34.726562 15.554688 37.675781 12.269531 39.820312 9.519531 C 40.359375 8.847656 40.625 8.3125 40.558594 7.574219 C 40.425781 5.765625 39.753906 6.636719 39.152344 7.308594 C 38.011719 8.515625 35.867188 9.855469 34.125 9.855469 C 33.453125 9.921875 32.78125 9.652344 32.113281 9.386719 C 31.84375 9.25 29.496094 7.84375 29.496094 7.910156 C 29.566406 8.042969 29.632812 8.246094 29.765625 8.378906 C 28.625 7.441406 27.417969 5.765625 26.347656 4.558594 L 21.722656 -0.738281 C 21.117188 -1.40625 16.828125 -7.507812 14.949219 -10.59375 L 17.09375 -6.769531 C 15.886719 -8.648438 14.816406 -10.59375 13.742188 -12.601562 C 17.09375 -12.402344 21.117188 -15.015625 23.867188 -16.761719 C 26.347656 -18.4375 28.222656 -21.117188 30.367188 -23.464844 C 34.660156 -27.957031 38.683594 -33.453125 39.820312 -39.753906 C 38.28125 -31.039062 33.050781 -24.203125 26.546875 -18.570312 C 28.691406 -19.105469 30.839844 -21.585938 32.3125 -23.128906 C 33.988281 -24.738281 35.464844 -26.613281 36.871094 -28.492188 C 38.480469 -30.703125 39.820312 -33.117188 40.761719 -35.730469 C 41.164062 -36.738281 42.570312 -39.6875 42.300781 -41.027344 C 42.300781 -41.027344 42.101562 -40.558594 41.96875 -40.222656 C 42.167969 -41.363281 42.300781 -42.4375 42.234375 -43.644531 C 42.300781 -43.375 42.4375 -42.972656 42.367188 -42.90625 C 42.503906 -42.972656 42.4375 -43.84375 42.4375 -44.179688 C 42.4375 -44.179688 42.367188 -44.648438 42.4375 -44.515625 C 42.167969 -47.730469 39.21875 -51.554688 35.730469 -50.546875 Z M 35.664062 -42.367188 C 35.597656 -42.101562 35.597656 -42.167969 35.664062 -42.300781 C 35.328125 -37.675781 32.714844 -33.117188 30.101562 -29.429688 C 28.761719 -27.484375 27.21875 -25.675781 25.609375 -23.933594 C 24.871094 -23.195312 24.066406 -22.457031 23.261719 -21.789062 C 22.660156 -21.183594 21.386719 -20.515625 20.78125 -19.777344 C 21.320312 -20.3125 22.523438 -20.984375 23.0625 -21.386719 C 24.132812 -22.324219 25.207031 -23.398438 26.210938 -24.402344 C 27.820312 -26.144531 29.363281 -27.957031 30.703125 -29.898438 C 26.613281 -23.800781 20.984375 -18.503906 14.210938 -15.6875 C 14.75 -16.023438 16.089844 -16.691406 16.089844 -16.761719 C 15.957031 -16.894531 13.273438 -15.6875 13.003906 -15.554688 C 13.878906 -17.296875 14.75 -19.039062 15.6875 -20.78125 C 15.957031 -21.183594 18.101562 -25.273438 18.101562 -25.273438 C 17.964844 -25.273438 17.832031 -25.207031 17.765625 -25.003906 C 20.714844 -29.765625 24.605469 -34.527344 28.222656 -38.882812 C 29.363281 -40.222656 36 -48.871094 35.664062 -42.4375 Z M 19.910156 -39.6875 C 20.042969 -39.957031 20.648438 -41.496094 20.515625 -41.230469 L 18.769531 -37.40625 C 19.171875 -38.144531 19.574219 -38.882812 19.910156 -39.6875 Z M 14.144531 -12.269531 C 14.011719 -12.203125 14.414062 -11.53125 14.949219 -10.59375 C 14.480469 -11.53125 14.078125 -12.269531 14.144531 -12.269531 Z M 18.90625 -4.089844 C 18.90625 -4.089844 18.90625 -4.15625 18.972656 -4.023438 L 18.972656 -3.957031 Z M 18.90625 -4.089844 C 18.839844 -4.089844 18.839844 -4.15625 18.769531 -4.222656 C 18.839844 -4.15625 18.839844 -4.089844 18.90625 -4.089844 Z M 17.164062 -24.066406 C 17.164062 -24.132812 17.230469 -24.132812 17.230469 -24.203125 C 17.230469 -24.132812 17.164062 -24.066406 17.164062 -24.066406 Z M 17.164062 -24.066406" transform="translate(216.433 205.339)"/></g></g></g><g fill="#FAFAFA"><g><g><path d="M 31.710938 -16.359375 C 31.507812 -17.632812 28.425781 -14.078125 28.289062 -13.945312 C 26.347656 -11.867188 24.46875 -9.585938 22.191406 -7.777344 C 21.117188 -6.972656 20.648438 -6.503906 20.714844 -8.113281 C 20.78125 -9.519531 21.320312 -10.996094 21.722656 -12.269531 C 21.921875 -12.9375 23.261719 -15.484375 22.859375 -15.957031 C 22.792969 -16.023438 22.660156 -15.820312 22.523438 -15.6875 C 23.464844 -17.5625 25.742188 -20.78125 22.726562 -21.652344 C 19.308594 -22.59375 17.5625 -18.90625 16.089844 -16.691406 C 14.683594 -14.683594 13.339844 -12.738281 11.730469 -10.925781 C 10.523438 -9.519531 8.648438 -6.839844 6.703125 -6.300781 C 4.894531 -5.699219 6.101562 -8.648438 6.367188 -9.652344 C 6.570312 -10.191406 8.984375 -16.425781 9.117188 -16.359375 C 8.984375 -16.359375 8.847656 -16.289062 8.714844 -16.089844 C 9.453125 -17.699219 10.257812 -19.308594 11.128906 -20.847656 C 10.925781 -20.445312 10.726562 -19.777344 10.726562 -19.777344 C 11.0625 -19.710938 12.671875 -22.996094 12.535156 -22.996094 C 12.402344 -22.925781 12.269531 -22.792969 12.132812 -22.59375 C 12.671875 -23.53125 13.339844 -24 12.132812 -24.9375 C 10.925781 -25.878906 8.78125 -26.078125 7.574219 -25.003906 C 6.101562 -23.800781 5.160156 -21.652344 4.425781 -19.976562 C 3.957031 -19.039062 3.152344 -18.503906 2.679688 -17.429688 C 1.742188 -15.351562 1.207031 -13.273438 0.671875 -11.128906 C 0.132812 -9.050781 -0.199219 -6.90625 0.132812 -4.761719 C 0.335938 -3.820312 0.671875 -2.75 1.40625 -2.078125 C 1.609375 -1.945312 3.554688 -1.207031 3.417969 -1.675781 C 3.285156 -1.675781 3.152344 -1.675781 3.082031 -1.742188 C 3.820312 -1.742188 4.558594 -2.078125 5.230469 -2.480469 C 5.296875 -2.414062 4.691406 -2.144531 4.691406 -2.078125 C 5.363281 -1.207031 10.457031 -6.367188 10.925781 -6.972656 C 12.601562 -9.117188 14.28125 -11.195312 16.023438 -13.273438 C 15.152344 -10.925781 13.675781 -7.710938 15.082031 -5.160156 C 15.886719 -3.820312 17.429688 -3.082031 18.90625 -3.21875 C 22.054688 -3.417969 24.871094 -6.839844 26.816406 -8.917969 C 28.089844 -10.324219 29.363281 -11.800781 30.300781 -13.40625 C 30.703125 -14.078125 31.777344 -15.554688 31.710938 -16.359375 Z M 21.519531 -15.015625 C 21.386719 -14.613281 21.320312 -14.078125 21.117188 -13.742188 C 21.117188 -13.675781 21.050781 -13.609375 20.984375 -13.542969 C 21.050781 -13.609375 21.050781 -13.675781 21.050781 -13.742188 C 20.515625 -15.417969 22.523438 -17.5625 23.195312 -19.242188 C 22.660156 -17.765625 21.988281 -16.425781 21.519531 -15.015625 Z M 5.5625 -6.367188 C 5.160156 -8.3125 6.570312 -10.996094 7.308594 -12.804688 C 6.367188 -10.191406 5.429688 -6.972656 5.5625 -6.367188 Z M 16.023438 -12.9375 C 16.023438 -13.207031 16.089844 -13.40625 16.289062 -13.542969 C 16.15625 -13.339844 16.089844 -13.140625 16.023438 -12.9375 Z M 16.023438 -12.9375" transform="translate(252.567 205.339)"/></g></g></g><g fill="#FAFAFA"><g><g><path d="M 24.269531 -12.402344 C 24.871094 -13.273438 27.285156 -15.820312 26.28125 -16.960938 C 24.9375 -18.300781 21.453125 -12.738281 20.917969 -12.066406 C 19.84375 -10.660156 18.703125 -9.320312 17.632812 -7.976562 C 17.027344 -7.242188 16.425781 -6.503906 15.753906 -5.832031 C 15.621094 -5.699219 14.347656 -4.089844 14.480469 -4.089844 C 14.683594 -4.15625 14.882812 -4.289062 15.082031 -4.425781 C 13.945312 -3.21875 12.402344 -2.144531 10.996094 -1.074219 C 10.054688 -0.402344 8.246094 1.074219 7.105469 0.269531 C 6.636719 0 6.503906 -0.671875 6.367188 -1.140625 C 5.898438 -3.21875 6.234375 -5.699219 6.570312 -7.84375 C 7.308594 -12.335938 8.78125 -16.761719 10.59375 -20.984375 C 11.464844 -22.925781 12.335938 -24.871094 13.878906 -26.347656 C 14.011719 -26.480469 14.28125 -26.210938 14.347656 -26.28125 C 14.480469 -26.347656 13.945312 -26.546875 13.878906 -26.480469 C 13.140625 -26.078125 12.671875 -25.273438 12.269531 -24.535156 C 11.0625 -22.59375 10.121094 -20.445312 9.320312 -18.300781 C 9.921875 -19.976562 10.59375 -21.652344 11.398438 -23.328125 C 11.867188 -24.203125 12.402344 -25.609375 13.273438 -26.28125 C 15.554688 -28.089844 14.683594 -22.125 14.414062 -21.25 C 14.414062 -21.320312 14.683594 -22.792969 14.613281 -22.792969 C 14.480469 -22.792969 13.542969 -19.375 13.542969 -19.375 L 13.878906 -19.644531 C 13.542969 -19.105469 12.871094 -18.703125 13.742188 -18.101562 C 14.816406 -17.363281 16.894531 -18.636719 17.363281 -19.574219 C 17.832031 -20.582031 17.964844 -21.921875 18.035156 -22.925781 C 18.167969 -24.671875 17.699219 -25.675781 17.09375 -27.015625 C 16.425781 -28.425781 15.820312 -29.296875 14.011719 -29.566406 C 12.535156 -29.765625 11.195312 -29.164062 10.054688 -28.289062 C 8.378906 -27.085938 7.105469 -25.542969 6.035156 -23.800781 C 5.765625 -23.328125 3.351562 -18.4375 3.417969 -18.367188 L 3.6875 -18.703125 C 3.351562 -17.964844 3.152344 -17.230469 2.882812 -16.558594 C 2.816406 -16.558594 3.015625 -17.164062 2.949219 -17.164062 C 2.546875 -17.230469 1.339844 -13.542969 1.273438 -13.207031 C 0.804688 -11.800781 0.46875 -10.390625 0.402344 -8.917969 C 0.335938 -7.308594 0.0664062 -5.699219 0 -4.023438 C 0 -3.152344 0 -2.210938 0.132812 -1.339844 C 0.132812 -1.074219 0.671875 0.335938 0.671875 -0.0664062 L 1.003906 1.074219 C 0.9375 1.003906 0.671875 0.335938 0.671875 0.335938 C 0.335938 0.738281 2.144531 3.351562 2.546875 3.753906 C 3.082031 4.359375 3.886719 4.625 4.691406 4.761719 C 7.375 5.09375 9.921875 3.554688 11.867188 1.945312 C 15.21875 -0.871094 18.503906 -4.359375 20.984375 -7.976562 C 21.988281 -9.519531 23.128906 -10.925781 24.269531 -12.402344 Z M 4.625 -17.296875 C 4.492188 -16.625 4.289062 -15.886719 4.023438 -15.285156 C 3.820312 -14.816406 3.21875 -14.414062 3.152344 -14.078125 C 3.285156 -15.21875 4.15625 -16.359375 4.691406 -17.632812 C 4.691406 -17.496094 4.625 -17.363281 4.625 -17.296875 Z M 2.144531 -9.453125 C 1.878906 -8.984375 1.878906 -8.113281 1.878906 -7.375 C 1.808594 -8.179688 1.808594 -9.050781 2.078125 -9.855469 C 2.078125 -9.855469 2.28125 -9.585938 2.144531 -9.453125 Z M 6.972656 -11.0625 C 7.242188 -12.132812 7.574219 -13.207031 7.910156 -14.28125 Z M 2.28125 -10.726562 C 2.210938 -10.523438 2.078125 -10.257812 2.078125 -10.121094 C 2.078125 -10.457031 2.078125 -10.792969 2.414062 -10.925781 Z M 8.179688 -15.082031 C 8.113281 -15.015625 8.113281 -15.015625 8.113281 -14.949219 C 8.113281 -15.082031 8.113281 -15.21875 8.179688 -15.351562 Z M 8.179688 -15.082031" transform="translate(279.383 205.339)"/></g></g></g><g fill="#FAFAFA"><g><g><path d="M 34.125 -16.15625 C 34.054688 -17.632812 32.847656 -16.359375 32.445312 -15.820312 C 31.574219 -14.546875 30.769531 -13.207031 29.964844 -11.933594 C 28.15625 -9.183594 26.347656 -6.4375 24.269531 -3.820312 C 17.363281 4.691406 22.191406 -10.457031 21.652344 -10.324219 C 21.386719 -10.257812 21.183594 -9.25 21.117188 -9.050781 C 21.652344 -11.464844 22.660156 -14.347656 23.933594 -16.691406 C 24.671875 -18.167969 25.542969 -19.375 24.203125 -20.984375 C 21.722656 -24 18.839844 -21.25 17.230469 -19.171875 C 16.558594 -21.722656 15.21875 -25.476562 11.933594 -25.476562 C 10.457031 -25.476562 9.585938 -24.738281 8.582031 -23.867188 C 7.976562 -23.464844 7.507812 -23.398438 6.972656 -22.925781 C 6.101562 -22.324219 5.496094 -21.386719 4.894531 -20.582031 C 2.613281 -17.230469 1.003906 -13.003906 0.269531 -9.117188 C -0.0664062 -7.242188 -0.199219 -5.160156 0.335938 -3.285156 C 0.671875 -2.210938 1.878906 0.199219 3.417969 0 C 3.484375 0 3.351562 -0.0664062 3.152344 -0.199219 C 4.089844 0.0664062 5.160156 -0.0664062 5.964844 -0.601562 C 6.035156 -0.46875 5.230469 -0.132812 5.230469 -0.132812 C 5.964844 1.003906 11.464844 -5.632812 11.867188 -6.234375 C 12.738281 -7.441406 13.339844 -8.714844 14.144531 -9.988281 C 14.75 -10.925781 15.6875 -12.132812 16.359375 -13.140625 C 16.289062 -12.671875 16.289062 -12.066406 16.289062 -12.066406 C 15.082031 -8.246094 13.945312 -4.089844 15.554688 -0.132812 C 16.289062 1.878906 18.101562 3.753906 20.378906 3.351562 C 22.390625 3.015625 24.066406 1.074219 25.273438 -0.46875 C 26.75 -2.210938 28.023438 -4.15625 29.296875 -6.167969 C 30.367188 -7.976562 31.375 -9.789062 32.246094 -11.800781 C 32.78125 -13.074219 34.257812 -14.613281 34.125 -16.15625 Z M 14.882812 -15.6875 C 14.546875 -15.21875 14.210938 -14.75 13.945312 -14.28125 L 12.203125 -11.800781 C 11.0625 -10.121094 9.855469 -8.515625 8.582031 -6.972656 C 8.246094 -6.503906 6.636719 -4.425781 5.964844 -4.625 C 4.960938 -4.960938 6.035156 -8.445312 6.167969 -8.984375 C 6.367188 -9.921875 9.921875 -20.246094 10.859375 -20.445312 C 9.652344 -20.515625 5.765625 -8.378906 5.5625 -7.375 C 6.101562 -10.660156 7.308594 -13.878906 8.648438 -16.894531 C 9.386719 -18.4375 11.0625 -22.523438 13.273438 -22.523438 C 14.480469 -22.523438 14.75 -20.042969 14.949219 -19.242188 C 14.882812 -19.375 14.28125 -21.320312 14.210938 -21.25 C 13.878906 -20.984375 15.21875 -17.296875 15.21875 -16.761719 C 15.21875 -16.222656 15.21875 -16.222656 14.882812 -15.6875 Z M 16.425781 -12.402344 C 16.425781 -12.402344 16.625 -13.339844 16.691406 -13.542969 L 17.027344 -14.011719 Z M 15.417969 -16.558594 L 15.417969 -17.230469 C 15.621094 -16.960938 15.621094 -16.761719 15.417969 -16.558594 Z M 25.609375 -33.050781 C 25.542969 -33.183594 25.40625 -34.054688 25.273438 -34.257812 C 24.804688 -34.996094 24.066406 -35.261719 23.398438 -35.464844 C 23.328125 -35.464844 22.523438 -35.664062 22.191406 -35.597656 C 21.386719 -35.53125 21.722656 -35.195312 21.519531 -34.792969 L 19.039062 -30.503906 C 18.703125 -29.898438 17.363281 -27.21875 18.035156 -26.75 C 18.4375 -26.414062 19.441406 -27.152344 19.710938 -27.351562 C 20.847656 -28.222656 22.324219 -29.296875 23.328125 -30.4375 C 23.53125 -30.636719 26.011719 -32.847656 25.609375 -33.050781 Z M 25.609375 -33.050781" transform="translate(300.97 205.339)"/></g></g></g><g fill="#FAFAFA"><g><g><path d="M 27.753906 -15.957031 C 27.417969 -17.5625 26.480469 -16.492188 26.078125 -15.886719 C 25.140625 -14.75 23.664062 -13.675781 22.523438 -12.601562 C 20.984375 -11.261719 19.441406 -9.855469 17.832031 -8.582031 C 17.027344 -7.910156 16.023438 -6.972656 15.015625 -6.636719 C 14.882812 -6.570312 14.414062 -6.503906 14.414062 -6.4375 L 14.347656 -6.503906 C 14.347656 -6.503906 14.28125 -7.574219 14.347656 -7.640625 C 14.414062 -8.515625 14.683594 -9.386719 14.949219 -10.191406 C 15.015625 -10.324219 15.753906 -12.601562 15.621094 -12.601562 L 15.285156 -12.203125 C 15.6875 -13.003906 16.222656 -13.808594 16.691406 -14.683594 C 15.621094 -13.675781 14.882812 -12.535156 14.347656 -11.128906 C 14.078125 -10.457031 13.339844 -9.25 13.207031 -8.246094 C 13.339844 -9.722656 14.347656 -11.664062 14.816406 -12.535156 C 15.484375 -13.945312 16.222656 -15.554688 17.09375 -16.894531 C 18.703125 -19.308594 22.191406 -21.519531 21.117188 -24.871094 C 20.179688 -28.023438 17.699219 -28.089844 15.753906 -26.28125 C 14.816406 -25.40625 6.839844 -15.21875 7.039062 -15.082031 C 7.039062 -15.082031 7.710938 -15.886719 8.582031 -17.027344 L 4.625 -11.261719 C 4.558594 -11.261719 5.296875 -12.402344 5.230469 -12.46875 C 5.160156 -12.535156 4.691406 -12.066406 4.625 -11.800781 C 4.761719 -13.207031 5.230469 -14.613281 5.363281 -16.023438 C 5.429688 -16.558594 5.363281 -16.960938 5.496094 -17.496094 C 5.765625 -18.367188 6.035156 -19.308594 6.4375 -20.042969 C 6.703125 -20.582031 7.242188 -21.050781 7.375 -21.585938 C 7.640625 -22.457031 7.574219 -22.792969 8.179688 -23.53125 C 8.714844 -24.203125 9.519531 -24.871094 9.988281 -25.476562 C 11.128906 -27.152344 9.183594 -28.289062 8.113281 -28.492188 C 7.242188 -28.625 6.367188 -28.691406 5.5625 -28.222656 C 4.691406 -27.6875 4.894531 -27.21875 4.691406 -26.480469 C 4.492188 -25.542969 3.820312 -24.46875 3.484375 -23.597656 C 2.949219 -22.191406 2.480469 -20.78125 2.011719 -19.375 C 1.476562 -17.964844 0.9375 -16.625 0.535156 -15.21875 C 0.199219 -14.078125 0.269531 -13.003906 0.132812 -11.933594 C 0 -10.726562 -0.199219 -9.921875 0.402344 -8.847656 C 1.074219 -7.710938 2.882812 -5.964844 4.089844 -7.441406 L 4.359375 -6.90625 C 5.496094 -9.386719 7.242188 -11.597656 8.648438 -14.011719 C 9.25 -15.082031 10.324219 -15.820312 11.195312 -16.960938 C 12.402344 -18.570312 13.476562 -20.179688 14.816406 -21.722656 C 14.613281 -21.386719 13.742188 -19.84375 13.808594 -19.777344 C 13.945312 -19.84375 14.011719 -19.976562 14.144531 -20.113281 L 13.207031 -18.234375 C 13.140625 -18.300781 13.476562 -18.769531 13.339844 -18.769531 C 12.871094 -18.90625 11.464844 -15.152344 11.328125 -14.816406 C 10.859375 -13.339844 10.792969 -12 10.660156 -10.457031 C 10.59375 -9.722656 10.457031 -8.984375 10.457031 -8.246094 C 10.457031 -7.507812 10.523438 -6.769531 10.859375 -6.035156 C 11.0625 -5.632812 11.328125 -5.09375 11.664062 -4.761719 C 11.730469 -4.761719 12.46875 -4.089844 12.132812 -4.625 L 12.535156 -4.222656 L 12.335938 -4.359375 C 12.269531 -4.023438 14.75 -2.679688 15.152344 -2.546875 C 17.027344 -1.945312 19.039062 -4.089844 20.246094 -5.363281 C 21.855469 -7.105469 23.195312 -9.117188 24.671875 -10.996094 C 25.476562 -12.066406 28.023438 -14.347656 27.753906 -15.957031 Z M 27.753906 -15.957031" transform="translate(330.2 205.339)"/></g></g></g></svg>